<?xml version="1.0" encoding="utf-8"?>
<!-- Generator: Adobe Illustrator 16.2.1, SVG Export Plug-In . SVG Version: 6.00 Build 0)  -->
<!DOCTYPE svg PUBLIC "-//W3C//DTD SVG 1.1//EN" "http://www.w3.org/Graphics/SVG/1.1/DTD/svg11.dtd">
<svg version="1.1" xmlns="http://www.w3.org/2000/svg" xmlns:xlink="http://www.w3.org/1999/xlink" x="0px" y="0px"
	 width="283.46px" height="283.46px" viewBox="0 0 283.46 283.46" enable-background="new 0 0 283.46 283.46" xml:space="preserve">
<g id="Layer_2">
</g>
<g id="Layer_1">
	<g>
		<g>
			<polygon fill="#29ABE2" points="52.162,93.78 42.987,93.78 57.259,75.104 66.435,75.104 			"/>
			<polygon points="37.901,75.104 28.726,75.104 42.999,93.78 42.987,93.78 42.987,107.812 52.174,107.812 52.174,93.78 			"/>
		</g>
		<g>
			<g opacity="0.2">
				<path opacity="0" fill="#FFFFFF" d="M133.528,110.192c0,1.276-10.122,2.313-22.612,2.313c-12.488,0-22.61-1.037-22.61-2.313
					c0-1.281,10.122-2.318,22.61-2.318C123.406,107.875,133.528,108.911,133.528,110.192z"/>
				<path opacity="0.0196" fill="#FAFAFA" d="M133.136,110.197c0,1.254-9.946,2.273-22.221,2.273
					c-12.272,0-22.219-1.02-22.219-2.273c0-1.259,9.947-2.278,22.219-2.278C123.19,107.919,133.136,108.938,133.136,110.197z"/>
				<path opacity="0.0392" fill="#F5F5F5" d="M132.745,110.201c0,1.233-9.771,2.234-21.83,2.234
					c-12.056,0-21.828-1.001-21.828-2.234c0-1.237,9.771-2.237,21.828-2.237C122.974,107.963,132.745,108.964,132.745,110.201z"/>
				<path opacity="0.0588" fill="#F0F0F0" d="M132.354,110.205c0,1.21-9.596,2.193-21.438,2.193c-11.84,0-21.437-0.983-21.437-2.193
					c0-1.215,9.597-2.197,21.437-2.197C122.757,108.008,132.354,108.99,132.354,110.205z"/>
				<ellipse opacity="0.0784" fill="#EBEBEB" cx="110.917" cy="110.209" rx="21.046" ry="2.153"/>
				<path opacity="0.098" fill="#E6E6E6" d="M131.571,110.214c0,1.166-9.246,2.113-20.656,2.113
					c-11.407,0-20.653-0.947-20.653-2.113c0-1.17,9.247-2.117,20.653-2.117C122.325,108.097,131.571,109.044,131.571,110.214z"/>
				<ellipse opacity="0.1176" fill="#E1E1E1" cx="110.917" cy="110.218" rx="20.263" ry="2.074"/>
				<path opacity="0.1373" fill="#DCDCDC" d="M130.788,110.223c0,1.122-8.896,2.034-19.873,2.034
					c-10.975,0-19.871-0.912-19.871-2.034c0-1.126,8.896-2.037,19.871-2.037C121.893,108.186,130.788,109.097,130.788,110.223z"/>
				<path opacity="0.1569" fill="#D7D7D7" d="M130.396,110.227c0,1.1-8.72,1.993-19.481,1.993c-10.759,0-19.48-0.893-19.48-1.993
					c0-1.104,8.721-1.997,19.48-1.997C121.677,108.23,130.396,109.123,130.396,110.227z"/>
				<ellipse opacity="0.1765" fill="#D2D2D2" cx="110.917" cy="110.231" rx="19.089" ry="1.954"/>
				<ellipse opacity="0.1961" fill="#CDCDCD" cx="110.917" cy="110.235" rx="18.698" ry="1.914"/>
				<ellipse opacity="0.2157" fill="#C8C8C8" cx="110.917" cy="110.24" rx="18.306" ry="1.874"/>
				<ellipse opacity="0.2353" fill="#C3C3C3" cx="110.917" cy="110.244" rx="17.915" ry="1.834"/>
				<ellipse opacity="0.2549" fill="#BEBEBE" cx="110.917" cy="110.248" rx="17.524" ry="1.794"/>
				<path opacity="0.2745" fill="#B9B9B9" d="M128.049,110.253c0,0.968-7.669,1.753-17.134,1.753
					c-9.461,0-17.131-0.785-17.131-1.753c0-0.971,7.669-1.756,17.131-1.756C120.38,108.497,128.049,109.282,128.049,110.253z"/>
				<ellipse opacity="0.2941" fill="#B4B4B4" cx="110.917" cy="110.257" rx="16.741" ry="1.714"/>
				<ellipse opacity="0.3137" fill="#AFAFAF" cx="110.917" cy="110.261" rx="16.35" ry="1.674"/>
				<ellipse opacity="0.3333" fill="#AAAAAA" cx="110.917" cy="110.266" rx="15.958" ry="1.634"/>
				<ellipse opacity="0.3529" fill="#A5A5A5" cx="110.917" cy="110.27" rx="15.567" ry="1.593"/>
				<ellipse opacity="0.3725" fill="#A0A0A0" cx="110.916" cy="110.274" rx="15.176" ry="1.554"/>
				<ellipse opacity="0.3922" fill="#9B9B9B" cx="110.916" cy="110.278" rx="14.784" ry="1.514"/>
				<ellipse opacity="0.4118" fill="#969696" cx="110.917" cy="110.283" rx="14.393" ry="1.474"/>
				<ellipse opacity="0.4314" fill="#919191" cx="110.917" cy="110.287" rx="14.001" ry="1.434"/>
				<path opacity="0.451" fill="#8C8C8C" d="M124.526,110.291c0,0.771-6.092,1.394-13.611,1.394c-7.516,0-13.609-0.623-13.609-1.394
					s6.093-1.395,13.609-1.395C118.435,108.896,124.526,109.521,124.526,110.291z"/>
				<path opacity="0.4706" fill="#878787" d="M124.135,110.296c0,0.748-5.917,1.354-13.22,1.354c-7.299,0-13.218-0.605-13.218-1.354
					c0-0.749,5.918-1.354,13.218-1.354C118.219,108.941,124.135,109.547,124.135,110.296z"/>
				<ellipse opacity="0.4902" fill="#828282" cx="110.917" cy="110.3" rx="12.828" ry="1.313"/>
				<path opacity="0.5098" fill="#7D7D7D" d="M123.353,110.305c0,0.703-5.566,1.273-12.438,1.273c-6.867,0-12.435-0.57-12.435-1.273
					c0-0.705,5.567-1.274,12.435-1.274C117.786,109.03,123.353,109.6,123.353,110.305z"/>
				<path opacity="0.5294" fill="#787878" d="M122.961,110.309c0,0.682-5.391,1.233-12.046,1.233
					c-6.651,0-12.043-0.552-12.043-1.233c0-0.682,5.392-1.234,12.043-1.234C117.57,109.074,122.961,109.626,122.961,110.309z"/>
				<ellipse opacity="0.549" fill="#737373" cx="110.917" cy="110.313" rx="11.654" ry="1.194"/>
				<ellipse opacity="0.5686" fill="#6E6E6E" cx="110.917" cy="110.317" rx="11.262" ry="1.153"/>
				<ellipse opacity="0.5882" fill="#696969" cx="110.917" cy="110.321" rx="10.871" ry="1.114"/>
				<ellipse opacity="0.6078" fill="#646464" cx="110.917" cy="110.326" rx="10.479" ry="1.074"/>
				<ellipse opacity="0.6275" fill="#5F5F5F" cx="110.917" cy="110.33" rx="10.088" ry="1.033"/>
				<ellipse opacity="0.6471" fill="#5A5A5A" cx="110.917" cy="110.334" rx="9.697" ry="0.994"/>
				<ellipse opacity="0.6667" fill="#555555" cx="110.917" cy="110.338" rx="9.305" ry="0.954"/>
				<ellipse opacity="0.6863" fill="#505050" cx="110.917" cy="110.343" rx="8.914" ry="0.914"/>
				<ellipse opacity="0.7059" fill="#4B4B4B" cx="110.917" cy="110.348" rx="8.522" ry="0.874"/>
				<ellipse opacity="0.7255" fill="#464646" cx="110.917" cy="110.352" rx="8.131" ry="0.834"/>
				<ellipse opacity="0.7451" fill="#414141" cx="110.916" cy="110.356" rx="7.74" ry="0.793"/>
				<ellipse opacity="0.7647" fill="#3C3C3C" cx="110.917" cy="110.36" rx="7.349" ry="0.753"/>
				<ellipse opacity="0.7843" fill="#373737" cx="110.916" cy="110.364" rx="6.957" ry="0.714"/>
				<ellipse opacity="0.8039" fill="#323232" cx="110.917" cy="110.369" rx="6.566" ry="0.674"/>
				<ellipse opacity="0.8235" fill="#2D2D2D" cx="110.917" cy="110.373" rx="6.174" ry="0.634"/>
				<ellipse opacity="0.8431" fill="#282828" cx="110.917" cy="110.377" rx="5.783" ry="0.594"/>
				<ellipse opacity="0.8627" fill="#232323" cx="110.917" cy="110.381" rx="5.392" ry="0.554"/>
				<ellipse opacity="0.8824" fill="#1E1E1E" cx="110.917" cy="110.386" rx="5" ry="0.514"/>
				<ellipse opacity="0.902" fill="#191919" cx="110.917" cy="110.391" rx="4.609" ry="0.474"/>
				<ellipse opacity="0.9216" fill="#141414" cx="110.917" cy="110.395" rx="4.218" ry="0.434"/>
				<ellipse opacity="0.9412" fill="#0F0F0F" cx="110.917" cy="110.399" rx="3.826" ry="0.394"/>
				<ellipse opacity="0.9608" fill="#0A0A0A" cx="110.917" cy="110.403" rx="3.435" ry="0.354"/>
				<path opacity="0.9804" fill="#050505" d="M113.96,110.407c0,0.176-1.362,0.314-3.045,0.314c-1.679,0-3.042-0.138-3.042-0.314
					c0-0.171,1.363-0.311,3.042-0.311C112.598,110.097,113.96,110.236,113.96,110.407z"/>
				<ellipse cx="110.917" cy="110.412" rx="2.652" ry="0.274"/>
			</g>
			<g>
				<path fill="#29ABE2" d="M106.026,92.09l0.007-0.009L95.779,78.664c-1.819,2.813-2.88,6.165-2.88,9.764
					c0,8.255,5.553,15.209,13.127,17.341V92.09z"/>
				<path d="M110.917,85.69l9.573-12.525c-2.774-1.744-6.055-2.755-9.573-2.755s-6.796,1.011-9.571,2.755L110.917,85.69z"/>
				<path fill="#29ABE2" d="M115.803,92.081l0.005,0.009v13.679c7.574-2.131,13.127-9.086,13.127-17.341
					c0-3.6-1.059-6.951-2.878-9.765L115.803,92.081z"/>
			</g>
		</g>
		<g>
			<path d="M182.092,98.941l9.953-17.703c-1.67-3.113-4.186-5.701-7.236-7.468h-2.607l-6.867,16.412l-9.475-16.411h-2.605
				c-0.723,0.832-3.617,5.735-4.188,6.686l10.393,18.484l-0.23,9.723c1.137,0.297,2.484,0.491,4.537,0.482
				c2.988-0.012,6.227-0.455,8.326-1.257V98.941z"/>
			<path fill="#29ABE2" d="M179.486,98.941l9.953-17.703c-1.67-3.113-4.186-5.701-7.238-7.468l-9.475,16.412l-9.473-16.411
				c-2.793,1.615-5.137,3.92-6.793,6.686l10.393,18.484v9.259c1.85,0.604,3.822,0.935,5.875,0.935c2.381,0,4.658-0.443,6.758-1.245
				V98.941z"/>
		</g>
		<g>
			<g opacity="0.2">
				<path opacity="0" fill="#FFFFFF" d="M260.2,112.137c0,1.276-10.121,2.313-22.611,2.313c-12.488,0-22.611-1.037-22.611-2.313
					c0-1.281,10.123-2.317,22.611-2.317C250.079,109.819,260.2,110.855,260.2,112.137z"/>
				<path opacity="0.0196" fill="#FAFAFA" d="M259.809,112.141c0,1.254-9.945,2.273-22.22,2.273c-12.272,0-22.22-1.02-22.22-2.273
					c0-1.259,9.947-2.277,22.22-2.277C249.863,109.864,259.809,110.882,259.809,112.141z"/>
				<path opacity="0.0392" fill="#F5F5F5" d="M259.418,112.145c0,1.233-9.771,2.233-21.829,2.233c-12.056,0-21.828-1-21.828-2.233
					c0-1.237,9.772-2.237,21.828-2.237C249.646,109.908,259.418,110.908,259.418,112.145z"/>
				<path opacity="0.0588" fill="#F0F0F0" d="M259.026,112.15c0,1.21-9.596,2.193-21.438,2.193c-11.84,0-21.438-0.983-21.438-2.193
					c0-1.215,9.598-2.197,21.438-2.197C249.431,109.953,259.026,110.935,259.026,112.15z"/>
				<path opacity="0.0784" fill="#EBEBEB" d="M258.635,112.154c0,1.188-9.42,2.153-21.046,2.153
					c-11.624,0-21.046-0.966-21.046-2.153c0-1.193,9.422-2.157,21.046-2.157C249.215,109.997,258.635,110.961,258.635,112.154z"/>
				<path opacity="0.098" fill="#E6E6E6" d="M258.243,112.158c0,1.167-9.244,2.114-20.654,2.114
					c-11.407,0-20.654-0.947-20.654-2.114c0-1.17,9.247-2.117,20.654-2.117C248.999,110.041,258.243,110.988,258.243,112.158z"/>
				<path opacity="0.1176" fill="#E1E1E1" d="M257.853,112.163c0,1.144-9.07,2.073-20.264,2.073
					c-11.191,0-20.263-0.929-20.263-2.073c0-1.148,9.071-2.077,20.263-2.077C248.782,110.086,257.853,111.014,257.853,112.163z"/>
				<ellipse opacity="0.1373" fill="#DCDCDC" cx="237.589" cy="112.167" rx="19.872" ry="2.034"/>
				<ellipse opacity="0.1569" fill="#D7D7D7" cx="237.589" cy="112.171" rx="19.48" ry="1.994"/>
				<path opacity="0.1765" fill="#D2D2D2" d="M256.679,112.176c0,1.078-8.545,1.953-19.09,1.953
					c-10.543,0-19.089-0.875-19.089-1.953c0-1.082,8.546-1.957,19.089-1.957C248.134,110.219,256.679,111.094,256.679,112.176z"/>
				<ellipse opacity="0.1961" fill="#CDCDCD" cx="237.589" cy="112.18" rx="18.698" ry="1.914"/>
				<ellipse opacity="0.2157" fill="#C8C8C8" cx="237.589" cy="112.184" rx="18.307" ry="1.874"/>
				<ellipse opacity="0.2353" fill="#C3C3C3" cx="237.589" cy="112.188" rx="17.915" ry="1.833"/>
				<ellipse opacity="0.2549" fill="#BEBEBE" cx="237.589" cy="112.192" rx="17.523" ry="1.794"/>
				<ellipse opacity="0.2745" fill="#B9B9B9" cx="237.589" cy="112.197" rx="17.133" ry="1.753"/>
				<ellipse opacity="0.2941" fill="#B4B4B4" cx="237.588" cy="112.201" rx="16.741" ry="1.714"/>
				<ellipse opacity="0.3137" fill="#AFAFAF" cx="237.589" cy="112.206" rx="16.35" ry="1.674"/>
				<ellipse opacity="0.3333" fill="#AAAAAA" cx="237.589" cy="112.21" rx="15.958" ry="1.633"/>
				<ellipse opacity="0.3529" fill="#A5A5A5" cx="237.588" cy="112.214" rx="15.567" ry="1.594"/>
				<ellipse opacity="0.3725" fill="#A0A0A0" cx="237.589" cy="112.219" rx="15.176" ry="1.554"/>
				<path opacity="0.3922" fill="#9B9B9B" d="M252.373,112.223c0,0.835-6.616,1.513-14.784,1.513
					c-8.164,0-14.784-0.678-14.784-1.513c0-0.837,6.62-1.515,14.784-1.515C245.757,110.708,252.373,111.386,252.373,112.223z"/>
				<ellipse opacity="0.4118" fill="#969696" cx="237.589" cy="112.227" rx="14.393" ry="1.473"/>
				<ellipse opacity="0.4314" fill="#919191" cx="237.589" cy="112.231" rx="14.002" ry="1.434"/>
				<ellipse opacity="0.451" fill="#8C8C8C" cx="237.589" cy="112.235" rx="13.61" ry="1.394"/>
				<ellipse opacity="0.4706" fill="#878787" cx="237.589" cy="112.24" rx="13.219" ry="1.353"/>
				<ellipse opacity="0.4902" fill="#828282" cx="237.588" cy="112.245" rx="12.828" ry="1.313"/>
				<ellipse opacity="0.5098" fill="#7D7D7D" cx="237.589" cy="112.249" rx="12.437" ry="1.273"/>
				<ellipse opacity="0.5294" fill="#787878" cx="237.589" cy="112.253" rx="12.045" ry="1.233"/>
				<ellipse opacity="0.549" fill="#737373" cx="237.588" cy="112.257" rx="11.654" ry="1.194"/>
				<path opacity="0.5686" fill="#6E6E6E" d="M248.851,112.262c0,0.638-5.039,1.153-11.262,1.153
					c-6.219,0-11.262-0.516-11.262-1.153s5.043-1.154,11.262-1.154C243.812,111.108,248.851,111.624,248.851,112.262z"/>
				<ellipse opacity="0.5882" fill="#696969" cx="237.589" cy="112.266" rx="10.871" ry="1.113"/>
				<ellipse opacity="0.6078" fill="#646464" cx="237.589" cy="112.271" rx="10.479" ry="1.073"/>
				<ellipse opacity="0.6275" fill="#5F5F5F" cx="237.589" cy="112.274" rx="10.088" ry="1.034"/>
				<ellipse opacity="0.6471" fill="#5A5A5A" cx="237.588" cy="112.278" rx="9.697" ry="0.994"/>
				<path opacity="0.6667" fill="#555555" d="M246.894,112.283c0,0.527-4.163,0.953-9.305,0.953c-5.138,0-9.305-0.426-9.305-0.953
					c0-0.526,4.167-0.953,9.305-0.953C242.73,111.33,246.894,111.757,246.894,112.283z"/>
				<ellipse opacity="0.6863" fill="#505050" cx="237.589" cy="112.288" rx="8.914" ry="0.914"/>
				<ellipse opacity="0.7059" fill="#4B4B4B" cx="237.589" cy="112.292" rx="8.522" ry="0.873"/>
				<ellipse opacity="0.7255" fill="#464646" cx="237.589" cy="112.296" rx="8.131" ry="0.834"/>
				<ellipse opacity="0.7451" fill="#414141" cx="237.589" cy="112.3" rx="7.74" ry="0.793"/>
				<ellipse opacity="0.7647" fill="#3C3C3C" cx="237.589" cy="112.305" rx="7.349" ry="0.753"/>
				<ellipse opacity="0.7843" fill="#373737" cx="237.589" cy="112.309" rx="6.957" ry="0.713"/>
				<ellipse opacity="0.8039" fill="#323232" cx="237.589" cy="112.313" rx="6.566" ry="0.673"/>
				<ellipse opacity="0.8235" fill="#2D2D2D" cx="237.589" cy="112.317" rx="6.175" ry="0.634"/>
				<ellipse opacity="0.8431" fill="#282828" cx="237.589" cy="112.322" rx="5.783" ry="0.594"/>
				<path opacity="0.8627" fill="#232323" d="M242.98,112.326c0,0.308-2.411,0.554-5.392,0.554c-2.977,0-5.392-0.246-5.392-0.554
					c0-0.305,2.415-0.552,5.392-0.552C240.569,111.774,242.98,112.021,242.98,112.326z"/>
				<ellipse opacity="0.8824" fill="#1E1E1E" cx="237.589" cy="112.331" rx="5" ry="0.514"/>
				<ellipse opacity="0.902" fill="#191919" cx="237.589" cy="112.335" rx="4.609" ry="0.473"/>
				<ellipse opacity="0.9216" fill="#141414" cx="237.589" cy="112.339" rx="4.218" ry="0.434"/>
				<ellipse opacity="0.9412" fill="#0F0F0F" cx="237.589" cy="112.343" rx="3.826" ry="0.394"/>
				<ellipse opacity="0.9608" fill="#0A0A0A" cx="237.589" cy="112.348" rx="3.435" ry="0.354"/>
				<ellipse opacity="0.9804" fill="#050505" cx="237.589" cy="112.352" rx="3.044" ry="0.313"/>
				<ellipse cx="237.589" cy="112.356" rx="2.652" ry="0.273"/>
			</g>
			<g>
				<path fill="#29ABE2" d="M248.997,81.377c0.631-0.824,0.297-1.499-0.742-1.499h-2.334c-1.037,0-2.402,0.675-3.033,1.499
					l-4.152,5.434c-0.631,0.824-1.66,0.824-2.291,0l-4.152-5.434c-0.631-0.824-1.996-1.499-3.033-1.499h-2.334
					c-1.039,0-1.371,0.675-0.742,1.499l7.207,9.43c0.631,0.825,1.145,1.501,1.145,1.502c-0.002,0.002-0.002,0.853-0.002,1.891v5.566
					c0,1.038,0.848,1.888,1.887,1.888h2.342c1.039,0,1.887-0.85,1.887-1.888v-5.566c0-1.038,0-1.889-0.002-1.891
					c0-0.001,0.514-0.677,1.145-1.502L248.997,81.377z"/>
				<path fill="#29ABE2" d="M237.591,104.372c-8.826,0-16.004-7.181-16.004-16.008c0-8.824,7.178-16.004,16.004-16.004
					c8.824,0,16.004,7.18,16.004,16.004C253.595,97.191,246.415,104.372,237.591,104.372z M237.591,73.692
					c-8.092,0-14.674,6.582-14.674,14.672c0,8.093,6.582,14.677,14.674,14.677c8.09,0,14.672-6.584,14.672-14.677
					C252.263,80.274,245.681,73.692,237.591,73.692z"/>
				<path d="M237.591,108.268c-10.973,0-19.898-8.929-19.898-19.903c0-10.972,8.926-19.898,19.898-19.898
					c10.971,0,19.898,8.927,19.898,19.898C257.489,99.339,248.562,108.268,237.591,108.268z M237.591,71.129
					c-9.504,0-17.236,7.731-17.236,17.235c0,9.506,7.732,17.24,17.236,17.24c9.502,0,17.234-7.734,17.234-17.24
					C254.825,78.86,247.093,71.129,237.591,71.129z"/>
			</g>
		</g>
	</g>
	<g>
		<g>
			<g>
				<polygon points="178.807,159.63 178.807,148.334 191.256,126.828 191.256,159.63 				"/>
				<polygon fill="#29ABE2" points="169.701,159.63 169.701,148.334 157.25,126.828 157.25,159.63 				"/>
			</g>
			<polygon points="166.346,126.828 174.254,140.525 182.16,126.828 			"/>
		</g>
		<g>
			<polygon points="50.251,125.729 47.58,131.483 55.291,148.092 55.35,148.092 65.733,125.729 			"/>
			<polygon points="47.58,131.483 44.908,125.729 29.428,125.729 39.811,148.092 39.868,148.092 			"/>
			<polygon fill="#29ABE2" points="55.291,148.092 47.58,131.483 39.868,148.092 			"/>
			<polygon points="39.868,148.092 39.811,148.092 39.802,148.092 39.802,160.728 55.35,160.728 55.35,148.092 55.291,148.092 			
				"/>
		</g>
		<g>
			<path d="M128.332,139.558v-13.744h-8.427l-8.99,11.763l-8.987-11.763h-8.426v13.744c4.522,0.364,8.44,2.867,10.737,6.498h13.355
				C119.891,142.425,123.809,139.922,128.332,139.558z"/>
			<path fill="#29ABE2" d="M104.46,160.644h12.913c-1.228-2.086-1.944-4.508-1.944-7.102c0-2.754,0.794-5.321,2.165-7.486h-13.355
				c1.37,2.165,2.165,4.732,2.165,7.486C106.404,156.136,105.687,158.558,104.46,160.644z"/>
		</g>
		<g>
			<g>
				<path d="M252.133,125.04l-9.736,19.661h0.041v9.403c0.146,0.005,0.293,0.011,0.439,0.011c8.844,0,16.014-7.168,16.014-16.011
					C258.891,132.708,256.219,127.942,252.133,125.04z"/>
				<path d="M223.043,125.04l9.738,19.661h-0.041v9.403c-0.146,0.005-0.293,0.011-0.439,0.011c-8.844,0-16.012-7.168-16.012-16.011
					C216.289,132.708,218.957,127.942,223.043,125.04z"/>
				<g>
					<polygon fill="#29ABE2" points="242.424,144.689 232.742,144.689 242.482,125.023 252.166,125.023 					"/>
					<polygon fill="#29ABE2" points="232.73,144.689 242.412,144.689 232.672,125.023 222.99,125.023 					"/>
					<rect x="232.742" y="144.689" fill="#29ABE2" width="9.723" height="9.443"/>
				</g>
			</g>
			<g opacity="0.2">
				<path opacity="0" fill="#FFFFFF" d="M264.812,158.234c0,1.767-12.186,3.2-27.225,3.2c-15.035,0-27.223-1.434-27.223-3.2
					c0-1.772,12.188-3.207,27.223-3.207C252.627,155.027,264.812,156.462,264.812,158.234z"/>
				<path opacity="0.0196" fill="#FAFAFA" d="M264.342,158.24c0,1.735-11.976,3.145-26.754,3.145
					c-14.774,0-26.752-1.409-26.752-3.145c0-1.742,11.978-3.151,26.752-3.151C252.366,155.089,264.342,156.498,264.342,158.24z"/>
				<path opacity="0.0392" fill="#F5F5F5" d="M263.87,158.246c0,1.706-11.764,3.09-26.282,3.09c-14.515,0-26.28-1.384-26.28-3.09
					c0-1.711,11.766-3.097,26.28-3.097C252.106,155.149,263.87,156.535,263.87,158.246z"/>
				<path opacity="0.0588" fill="#F0F0F0" d="M263.399,158.252c0,1.675-11.553,3.034-25.812,3.034
					c-14.254,0-25.81-1.359-25.81-3.034c0-1.68,11.556-3.04,25.81-3.04C251.847,155.212,263.399,156.572,263.399,158.252z"/>
				<path opacity="0.0784" fill="#EBEBEB" d="M262.928,158.258c0,1.645-11.342,2.979-25.34,2.979
					c-13.994,0-25.338-1.335-25.338-2.979c0-1.649,11.344-2.984,25.338-2.984C251.586,155.273,262.928,156.608,262.928,158.258z"/>
				<path opacity="0.098" fill="#E6E6E6" d="M262.456,158.264c0,1.614-11.131,2.924-24.868,2.924
					c-13.733,0-24.866-1.31-24.866-2.924c0-1.618,11.133-2.93,24.866-2.93C251.325,155.334,262.456,156.646,262.456,158.264z"/>
				<path opacity="0.1176" fill="#E1E1E1" d="M261.985,158.271c0,1.583-10.92,2.868-24.397,2.868
					c-13.474,0-24.396-1.285-24.396-2.868c0-1.589,10.922-2.875,24.396-2.875C251.065,155.396,261.985,156.682,261.985,158.271z"/>
				<path opacity="0.1373" fill="#DCDCDC" d="M261.514,158.276c0,1.553-10.709,2.812-23.926,2.812
					c-13.214,0-23.925-1.26-23.925-2.812c0-1.558,10.711-2.818,23.925-2.818C250.805,155.458,261.514,156.719,261.514,158.276z"/>
				<path opacity="0.1569" fill="#D7D7D7" d="M261.043,158.281c0,1.523-10.498,2.758-23.455,2.758
					c-12.953,0-23.453-1.234-23.453-2.758c0-1.526,10.5-2.762,23.453-2.762C250.545,155.52,261.043,156.755,261.043,158.281z"/>
				<path opacity="0.1765" fill="#D2D2D2" d="M260.572,158.288c0,1.492-10.287,2.702-22.984,2.702
					c-12.693,0-22.982-1.21-22.982-2.702c0-1.496,10.289-2.708,22.982-2.708C250.285,155.58,260.572,156.792,260.572,158.288z"/>
				<path opacity="0.1961" fill="#CDCDCD" d="M260.101,158.294c0,1.462-10.076,2.646-22.513,2.646
					c-12.433,0-22.511-1.185-22.511-2.646c0-1.466,10.078-2.652,22.511-2.652C250.024,155.642,260.101,156.828,260.101,158.294z"/>
				<path opacity="0.2157" fill="#C8C8C8" d="M259.629,158.3c0,1.431-9.865,2.592-22.041,2.592c-12.173,0-22.04-1.161-22.04-2.592
					c0-1.435,9.867-2.597,22.04-2.597C249.764,155.703,259.629,156.865,259.629,158.3z"/>
				<path opacity="0.2353" fill="#C3C3C3" d="M259.158,158.306c0,1.401-9.654,2.536-21.57,2.536
					c-11.912,0-21.568-1.135-21.568-2.536c0-1.404,9.656-2.541,21.568-2.541C249.504,155.765,259.158,156.901,259.158,158.306z"/>
				<path opacity="0.2549" fill="#BEBEBE" d="M258.687,158.312c0,1.37-9.442,2.48-21.099,2.48c-11.652,0-21.098-1.11-21.098-2.48
					c0-1.373,9.445-2.485,21.098-2.485C249.244,155.826,258.687,156.938,258.687,158.312z"/>
				<path opacity="0.2745" fill="#B9B9B9" d="M258.216,158.317c0,1.34-9.232,2.426-20.628,2.426
					c-11.392,0-20.627-1.086-20.627-2.426c0-1.342,9.235-2.43,20.627-2.43C248.983,155.888,258.216,156.976,258.216,158.317z"/>
				<path opacity="0.2941" fill="#B4B4B4" d="M257.744,158.323c0,1.31-9.021,2.37-20.156,2.37c-11.132,0-20.155-1.061-20.155-2.37
					c0-1.312,9.023-2.374,20.155-2.374C248.723,155.949,257.744,157.012,257.744,158.323z"/>
				<path opacity="0.3137" fill="#AFAFAF" d="M257.273,158.33c0,1.278-8.811,2.314-19.686,2.314
					c-10.872,0-19.684-1.036-19.684-2.314c0-1.281,8.812-2.319,19.684-2.319C248.463,156.011,257.273,157.049,257.273,158.33z"/>
				<path opacity="0.3333" fill="#AAAAAA" d="M256.802,158.335c0,1.249-8.599,2.26-19.214,2.26c-10.611,0-19.213-1.011-19.213-2.26
					c0-1.25,8.602-2.263,19.213-2.263C248.203,156.072,256.802,157.085,256.802,158.335z"/>
				<path opacity="0.3529" fill="#A5A5A5" d="M256.331,158.342c0,1.218-8.389,2.204-18.743,2.204
					c-10.352,0-18.741-0.986-18.741-2.204c0-1.22,8.39-2.208,18.741-2.208C247.942,156.134,256.331,157.122,256.331,158.342z"/>
				<path opacity="0.3725" fill="#A0A0A0" d="M255.859,158.348c0,1.188-8.178,2.148-18.271,2.148
					c-10.091,0-18.271-0.961-18.271-2.148c0-1.188,8.18-2.152,18.271-2.152C247.682,156.195,255.859,157.159,255.859,158.348z"/>
				<path opacity="0.3922" fill="#9B9B9B" d="M255.389,158.354c0,1.157-7.967,2.093-17.801,2.093c-9.83,0-17.8-0.936-17.8-2.093
					c0-1.158,7.97-2.097,17.8-2.097C247.422,156.257,255.389,157.195,255.389,158.354z"/>
				<path opacity="0.4118" fill="#969696" d="M254.918,158.359c0,1.126-7.756,2.038-17.33,2.038c-9.57,0-17.328-0.912-17.328-2.038
					c0-1.127,7.758-2.041,17.328-2.041C247.162,156.318,254.918,157.232,254.918,158.359z"/>
				<path opacity="0.4314" fill="#919191" d="M254.445,158.365c0,1.097-7.544,1.982-16.857,1.982
					c-9.311,0-16.857-0.886-16.857-1.982s7.547-1.985,16.857-1.985C246.901,156.38,254.445,157.269,254.445,158.365z"/>
				<path opacity="0.451" fill="#8C8C8C" d="M253.975,158.371c0,1.065-7.334,1.928-16.387,1.928c-9.05,0-16.386-0.862-16.386-1.928
					s7.336-1.93,16.386-1.93C246.641,156.441,253.975,157.306,253.975,158.371z"/>
				<path opacity="0.4706" fill="#878787" d="M253.504,158.377c0,1.035-7.123,1.872-15.916,1.872
					c-8.789,0-15.914-0.837-15.914-1.872s7.125-1.874,15.914-1.874C246.381,156.503,253.504,157.342,253.504,158.377z"/>
				<path opacity="0.4902" fill="#828282" d="M253.032,158.384c0,1.004-6.912,1.816-15.444,1.816
					c-8.529,0-15.443-0.812-15.443-1.816c0-1.005,6.914-1.82,15.443-1.82C246.12,156.563,253.032,157.379,253.032,158.384z"/>
				<path opacity="0.5098" fill="#7D7D7D" d="M252.562,158.39c0,0.974-6.701,1.761-14.974,1.761c-8.27,0-14.973-0.787-14.973-1.761
					s6.703-1.765,14.973-1.765C245.86,156.625,252.562,157.416,252.562,158.39z"/>
				<path opacity="0.5294" fill="#787878" d="M252.09,158.396c0,0.943-6.49,1.706-14.502,1.706c-8.009,0-14.501-0.763-14.501-1.706
					s6.492-1.708,14.501-1.708C245.6,156.688,252.09,157.452,252.09,158.396z"/>
				<path opacity="0.549" fill="#737373" d="M251.619,158.401c0,0.913-6.279,1.65-14.031,1.65c-7.749,0-14.029-0.737-14.029-1.65
					c0-0.912,6.28-1.652,14.029-1.652C245.34,156.749,251.619,157.489,251.619,158.401z"/>
				<ellipse opacity="0.5686" fill="#6E6E6E" cx="237.588" cy="158.407" rx="13.559" ry="1.595"/>
				<path opacity="0.5882" fill="#696969" d="M250.677,158.413c0,0.852-5.857,1.54-13.089,1.54c-7.229,0-13.088-0.688-13.088-1.54
					c0-0.851,5.859-1.542,13.088-1.542C244.819,156.871,250.677,157.562,250.677,158.413z"/>
				<ellipse opacity="0.6078" fill="#646464" cx="237.588" cy="158.419" rx="12.617" ry="1.484"/>
				<path opacity="0.6275" fill="#5F5F5F" d="M249.734,158.426c0,0.79-5.436,1.429-12.146,1.429c-6.708,0-12.146-0.639-12.146-1.429
					s5.438-1.431,12.146-1.431C244.299,156.995,249.734,157.636,249.734,158.426z"/>
				<ellipse opacity="0.6471" fill="#5A5A5A" cx="237.588" cy="158.432" rx="11.674" ry="1.373"/>
				<path opacity="0.6667" fill="#555555" d="M248.791,158.437c0,0.73-5.013,1.319-11.203,1.319c-6.188,0-11.203-0.589-11.203-1.319
					c0-0.728,5.016-1.319,11.203-1.319C243.778,157.117,248.791,157.709,248.791,158.437z"/>
				<ellipse opacity="0.6863" fill="#505050" cx="237.588" cy="158.443" rx="10.732" ry="1.263"/>
				<path opacity="0.7059" fill="#4B4B4B" d="M247.85,158.449c0,0.669-4.592,1.208-10.262,1.208c-5.667,0-10.261-0.539-10.261-1.208
					c0-0.667,4.594-1.209,10.261-1.209C243.258,157.24,247.85,157.782,247.85,158.449z"/>
				<ellipse opacity="0.7255" fill="#464646" cx="237.588" cy="158.455" rx="9.79" ry="1.152"/>
				<ellipse opacity="0.7451" fill="#414141" cx="237.588" cy="158.461" rx="9.319" ry="1.098"/>
				<ellipse opacity="0.7647" fill="#3C3C3C" cx="237.588" cy="158.467" rx="8.848" ry="1.042"/>
				<ellipse opacity="0.7843" fill="#373737" cx="237.588" cy="158.473" rx="8.376" ry="0.987"/>
				<ellipse opacity="0.8039" fill="#323232" cx="237.588" cy="158.479" rx="7.905" ry="0.931"/>
				<ellipse opacity="0.8235" fill="#2D2D2D" cx="237.588" cy="158.485" rx="7.434" ry="0.876"/>
				<ellipse opacity="0.8431" fill="#282828" cx="237.588" cy="158.491" rx="6.963" ry="0.82"/>
				<path opacity="0.8627" fill="#232323" d="M244.079,158.497c0,0.425-2.903,0.765-6.491,0.765c-3.585,0-6.491-0.34-6.491-0.765
					c0-0.421,2.906-0.765,6.491-0.765C241.176,157.732,244.079,158.076,244.079,158.497z"/>
				<ellipse opacity="0.8824" fill="#1E1E1E" cx="237.588" cy="158.503" rx="6.021" ry="0.71"/>
				<path opacity="0.902" fill="#191919" d="M243.138,158.509c0,0.364-2.483,0.654-5.55,0.654c-3.064,0-5.549-0.29-5.549-0.654
					c0-0.359,2.484-0.653,5.549-0.653C240.654,157.855,243.138,158.149,243.138,158.509z"/>
				<path opacity="0.9216" fill="#141414" d="M242.666,158.515c0,0.334-2.271,0.6-5.078,0.6c-2.805,0-5.078-0.266-5.078-0.6
					c0-0.328,2.273-0.598,5.078-0.598C240.395,157.917,242.666,158.187,242.666,158.515z"/>
				<path opacity="0.9412" fill="#0F0F0F" d="M242.195,158.521c0,0.303-2.061,0.543-4.607,0.543c-2.544,0-4.606-0.24-4.606-0.543
					c0-0.299,2.062-0.543,4.606-0.543C240.135,157.979,242.195,158.223,242.195,158.521z"/>
				<path opacity="0.9608" fill="#0A0A0A" d="M241.724,158.526c0,0.273-1.85,0.489-4.136,0.489c-2.284,0-4.136-0.216-4.136-0.489
					c0-0.267,1.852-0.486,4.136-0.486C239.874,158.04,241.724,158.26,241.724,158.526z"/>
				<path opacity="0.9804" fill="#050505" d="M241.253,158.533c0,0.242-1.64,0.433-3.665,0.433c-2.023,0-3.665-0.19-3.665-0.433
					c0-0.237,1.642-0.432,3.665-0.432C239.613,158.102,241.253,158.296,241.253,158.533z"/>
				<path d="M240.781,158.539c0,0.212-1.428,0.378-3.193,0.378c-1.764,0-3.193-0.166-3.193-0.378c0-0.206,1.43-0.376,3.193-0.376
					C239.354,158.163,240.781,158.333,240.781,158.539z"/>
			</g>
		</g>
	</g>
	<g>
		<g>
			<path d="M170.106,216.964c0,1.189-0.217,2.327-0.594,3.388l0.266,0.547h8.949l0.264-0.544c-0.377-1.062-0.594-2.199-0.594-3.391
				c0-4.47,2.904-8.254,6.926-9.588l8.34-17.089h-7.246c0.01,0.213,0.033,0.422,0.033,0.639c0,6.734-5.461,12.195-12.199,12.195
				c-6.734,0-12.195-5.461-12.195-12.195c0-0.217,0.021-0.426,0.033-0.639h-7.246l8.34,17.091
				C167.204,208.712,170.106,212.495,170.106,216.964z"/>
			<circle fill="#29ABE2" cx="174.252" cy="190.313" r="5.196"/>
		</g>
		<g>
			<polygon fill="#29ABE2" points="123.463,184.354 115.801,184.354 110.917,191.618 106.032,184.354 98.371,184.354 
				118.418,206.217 128.277,191.511 			"/>
			<polygon points="93.556,191.511 103.415,206.217 103.415,221.662 118.418,221.662 118.418,206.217 98.371,184.354 			"/>
		</g>
		<g>
			<g opacity="0.2">
				<path opacity="0" fill="#FFFFFF" d="M76.514,217.951c0,1.861-12.954,3.373-28.935,3.373c-15.98,0-28.932-1.512-28.932-3.373
					c0-1.868,12.952-3.38,28.932-3.38C63.56,214.571,76.514,216.083,76.514,217.951z"/>
				<path opacity="0.0196" fill="#FAFAFA" d="M76.013,217.958c0,1.829-12.729,3.314-28.434,3.314
					c-15.704,0-28.432-1.485-28.432-3.314c0-1.836,12.728-3.322,28.432-3.322C63.284,214.636,76.013,216.122,76.013,217.958z"/>
				<path opacity="0.0392" fill="#F5F5F5" d="M75.512,217.964c0,1.797-12.505,3.257-27.933,3.257
					c-15.427,0-27.931-1.46-27.931-3.257c0-1.804,12.503-3.263,27.931-3.263C63.007,214.701,75.512,216.16,75.512,217.964z"/>
				<path opacity="0.0588" fill="#F0F0F0" d="M75.011,217.97c0,1.766-12.281,3.198-27.432,3.198c-15.15,0-27.43-1.433-27.43-3.198
					c0-1.771,12.28-3.204,27.43-3.204C62.73,214.766,75.011,216.199,75.011,217.97z"/>
				<path opacity="0.0784" fill="#EBEBEB" d="M74.51,217.977c0,1.732-12.057,3.14-26.931,3.14c-14.874,0-26.929-1.407-26.929-3.14
					c0-1.739,12.055-3.146,26.929-3.146C62.454,214.83,74.51,216.237,74.51,217.977z"/>
				<path opacity="0.098" fill="#E6E6E6" d="M74.01,217.982c0,1.701-11.833,3.081-26.431,3.081c-14.598,0-26.428-1.38-26.428-3.081
					c0-1.706,11.831-3.087,26.428-3.087C62.177,214.896,74.01,216.276,74.01,217.982z"/>
				<path opacity="0.1176" fill="#E1E1E1" d="M73.509,217.989c0,1.668-11.608,3.022-25.93,3.022
					c-14.321,0-25.927-1.354-25.927-3.022c0-1.675,11.606-3.029,25.927-3.029C61.9,214.96,73.509,216.314,73.509,217.989z"/>
				<path opacity="0.1373" fill="#DCDCDC" d="M73.008,217.995c0,1.637-11.384,2.965-25.429,2.965
					c-14.044,0-25.427-1.328-25.427-2.965c0-1.642,11.383-2.971,25.427-2.971C61.624,215.024,73.008,216.354,73.008,217.995z"/>
				<path opacity="0.1569" fill="#D7D7D7" d="M72.507,218.002c0,1.604-11.16,2.906-24.928,2.906
					c-13.768,0-24.926-1.303-24.926-2.906c0-1.609,11.158-2.912,24.926-2.912C61.348,215.09,72.507,216.393,72.507,218.002z"/>
				<path opacity="0.1765" fill="#D2D2D2" d="M72.006,218.008c0,1.572-10.935,2.848-24.427,2.848
					c-13.491,0-24.425-1.275-24.425-2.848c0-1.576,10.934-2.854,24.425-2.854C61.071,215.154,72.006,216.432,72.006,218.008z"/>
				<path opacity="0.1961" fill="#CDCDCD" d="M71.506,218.014c0,1.541-10.712,2.79-23.927,2.79c-13.214,0-23.925-1.249-23.925-2.79
					c0-1.544,10.71-2.795,23.925-2.795C60.794,215.219,71.506,216.47,71.506,218.014z"/>
				<path opacity="0.2157" fill="#C8C8C8" d="M71.005,218.021c0,1.508-10.487,2.731-23.426,2.731
					c-12.938,0-23.424-1.224-23.424-2.731c0-1.513,10.486-2.736,23.424-2.736C60.518,215.284,71.005,216.508,71.005,218.021z"/>
				<path opacity="0.2353" fill="#C3C3C3" d="M70.504,218.026c0,1.477-10.262,2.673-22.925,2.673
					c-12.661,0-22.923-1.196-22.923-2.673c0-1.479,10.262-2.678,22.923-2.678C60.242,215.349,70.504,216.547,70.504,218.026z"/>
				<path opacity="0.2549" fill="#BEBEBE" d="M70.004,218.033c0,1.443-10.039,2.614-22.425,2.614
					c-12.385,0-22.422-1.171-22.422-2.614c0-1.447,10.037-2.619,22.422-2.619C59.965,215.414,70.004,216.586,70.004,218.033z"/>
				<path opacity="0.2745" fill="#B9B9B9" d="M69.503,218.039c0,1.412-9.814,2.557-21.924,2.557
					c-12.108,0-21.921-1.145-21.921-2.557c0-1.415,9.813-2.561,21.921-2.561C59.688,215.479,69.503,216.624,69.503,218.039z"/>
				<path opacity="0.2941" fill="#B4B4B4" d="M69.002,218.046c0,1.379-9.59,2.498-21.423,2.498c-11.831,0-21.42-1.119-21.42-2.498
					c0-1.383,9.589-2.503,21.42-2.503C59.412,215.543,69.002,216.663,69.002,218.046z"/>
				<path opacity="0.3137" fill="#AFAFAF" d="M68.501,218.052c0,1.347-9.366,2.439-20.922,2.439c-11.555,0-20.92-1.093-20.92-2.439
					c0-1.351,9.365-2.444,20.92-2.444C59.135,215.607,68.501,216.701,68.501,218.052z"/>
				<path opacity="0.3333" fill="#AAAAAA" d="M68,218.059c0,1.314-9.142,2.381-20.421,2.381c-11.278,0-20.419-1.066-20.419-2.381
					c0-1.318,9.141-2.387,20.419-2.387C58.858,215.672,68,216.74,68,218.059z"/>
				<ellipse opacity="0.3529" fill="#A5A5A5" cx="47.58" cy="218.064" rx="19.92" ry="2.323"/>
				<ellipse opacity="0.3725" fill="#A0A0A0" cx="47.58" cy="218.07" rx="19.419" ry="2.266"/>
				<ellipse opacity="0.3922" fill="#9B9B9B" cx="47.58" cy="218.077" rx="18.918" ry="2.206"/>
				<path opacity="0.4118" fill="#969696" d="M65.998,218.084c0,1.186-8.245,2.147-18.418,2.147
					c-10.172,0-18.416-0.962-18.416-2.147c0-1.189,8.244-2.152,18.416-2.152C57.752,215.932,65.998,216.895,65.998,218.084z"/>
				<ellipse opacity="0.4314" fill="#919191" cx="47.58" cy="218.09" rx="17.916" ry="2.09"/>
				<ellipse opacity="0.451" fill="#8C8C8C" cx="47.581" cy="218.096" rx="17.416" ry="2.031"/>
				<ellipse opacity="0.4706" fill="#878787" cx="47.58" cy="218.103" rx="16.915" ry="1.973"/>
				<ellipse opacity="0.4902" fill="#828282" cx="47.58" cy="218.109" rx="16.414" ry="1.914"/>
				<ellipse opacity="0.5098" fill="#7D7D7D" cx="47.58" cy="218.115" rx="15.913" ry="1.855"/>
				<ellipse opacity="0.5294" fill="#787878" cx="47.58" cy="218.121" rx="15.413" ry="1.798"/>
				<ellipse opacity="0.549" fill="#737373" cx="47.581" cy="218.127" rx="14.912" ry="1.74"/>
				<ellipse opacity="0.5686" fill="#6E6E6E" cx="47.58" cy="218.134" rx="14.411" ry="1.682"/>
				<ellipse opacity="0.5882" fill="#696969" cx="47.58" cy="218.141" rx="13.91" ry="1.622"/>
				<ellipse opacity="0.6078" fill="#646464" cx="47.58" cy="218.146" rx="13.409" ry="1.564"/>
				<ellipse opacity="0.6275" fill="#5F5F5F" cx="47.58" cy="218.152" rx="12.909" ry="1.506"/>
				<ellipse opacity="0.6471" fill="#5A5A5A" cx="47.58" cy="218.159" rx="12.408" ry="1.447"/>
				<ellipse opacity="0.6667" fill="#555555" cx="47.58" cy="218.166" rx="11.907" ry="1.389"/>
				<ellipse opacity="0.6863" fill="#505050" cx="47.58" cy="218.172" rx="11.406" ry="1.33"/>
				<ellipse opacity="0.7059" fill="#4B4B4B" cx="47.58" cy="218.178" rx="10.906" ry="1.273"/>
				<ellipse opacity="0.7255" fill="#464646" cx="47.58" cy="218.184" rx="10.405" ry="1.215"/>
				<ellipse opacity="0.7451" fill="#414141" cx="47.58" cy="218.19" rx="9.904" ry="1.156"/>
				<ellipse opacity="0.7647" fill="#3C3C3C" cx="47.58" cy="218.197" rx="9.403" ry="1.098"/>
				<ellipse opacity="0.7843" fill="#373737" cx="47.58" cy="218.203" rx="8.903" ry="1.039"/>
				<path opacity="0.8039" fill="#323232" d="M55.982,218.209c0,0.545-3.761,0.981-8.403,0.981c-4.639,0-8.401-0.437-8.401-0.981
					c0-0.541,3.762-0.981,8.401-0.981C52.221,217.228,55.982,217.668,55.982,218.209z"/>
				<ellipse opacity="0.8235" fill="#2D2D2D" cx="47.58" cy="218.216" rx="7.901" ry="0.923"/>
				<path opacity="0.8431" fill="#282828" d="M54.98,218.222c0,0.48-3.312,0.864-7.401,0.864c-4.085,0-7.399-0.384-7.399-0.864
					c0-0.477,3.314-0.865,7.399-0.865C51.668,217.356,54.98,217.745,54.98,218.222z"/>
				<ellipse opacity="0.8627" fill="#232323" cx="47.58" cy="218.229" rx="6.899" ry="0.806"/>
				<path opacity="0.8824" fill="#1E1E1E" d="M53.979,218.234c0,0.416-2.864,0.748-6.4,0.748c-3.532,0-6.398-0.332-6.398-0.748
					c0-0.412,2.866-0.748,6.398-0.748C51.115,217.486,53.979,217.822,53.979,218.234z"/>
				<ellipse opacity="0.902" fill="#191919" cx="47.58" cy="218.241" rx="5.898" ry="0.688"/>
				<path opacity="0.9216" fill="#141414" d="M52.978,218.247c0,0.352-2.416,0.631-5.398,0.631c-2.979,0-5.396-0.279-5.396-0.631
					c0-0.347,2.417-0.631,5.396-0.631C50.562,217.616,52.978,217.9,52.978,218.247z"/>
				<path opacity="0.9412" fill="#0F0F0F" d="M52.477,218.253c0,0.32-2.191,0.573-4.897,0.573c-2.703,0-4.895-0.253-4.895-0.573
					c0-0.314,2.192-0.572,4.895-0.572C50.285,217.681,52.477,217.938,52.477,218.253z"/>
				<path opacity="0.9608" fill="#0A0A0A" d="M51.976,218.26c0,0.287-1.967,0.515-4.396,0.515c-2.426,0-4.395-0.228-4.395-0.515
					c0-0.282,1.969-0.514,4.395-0.514C50.009,217.746,51.976,217.978,51.976,218.26z"/>
				<path opacity="0.9804" fill="#050505" d="M51.475,218.267c0,0.255-1.743,0.455-3.896,0.455c-2.149,0-3.894-0.2-3.894-0.455
					c0-0.25,1.744-0.456,3.894-0.456C49.732,217.811,51.475,218.017,51.475,218.267z"/>
				<path d="M50.974,218.272c0,0.223-1.519,0.397-3.395,0.397c-1.873,0-3.393-0.175-3.393-0.397c0-0.218,1.521-0.397,3.393-0.397
					C49.456,217.875,50.974,218.055,50.974,218.272z"/>
			</g>
			<g>
				<path d="M62.237,184.712l-9.83,19.846h0.042v9.491c0.147,0.005,0.294,0.013,0.444,0.013c8.927,0,16.165-7.237,16.165-16.164
					C69.057,192.452,66.363,187.64,62.237,184.712z"/>
				<path d="M32.924,184.712l9.83,19.846h-0.041v9.491c-0.148,0.005-0.294,0.013-0.444,0.013c-8.927,0-16.165-7.237-16.165-16.164
					C26.104,192.452,28.799,187.64,32.924,184.712z"/>
				<polygon fill="#29ABE2" points="42.607,184.691 52.511,184.691 47.586,194.747 				"/>
			</g>
		</g>
		<g>
			<polygon fill="#29ABE2" points="233.399,207.231 224.62,195.744 218.21,202.155 233.396,217.341 233.396,207.238 			"/>
			<polygon fill="#29ABE2" points="245.808,190.994 237.589,182.776 229.37,190.994 237.589,201.749 			"/>
			<polygon fill="#29ABE2" points="241.786,207.238 241.786,217.338 256.968,202.155 250.558,195.744 241.78,207.23 			"/>
			<polygon points="228.749,190.181 220.368,190.181 224.62,195.744 229.37,190.994 			"/>
			<polygon points="254.81,190.181 246.431,190.181 245.808,190.994 250.558,195.744 			"/>
			<polygon points="237.589,221.534 233.396,217.341 233.396,223.239 241.786,223.239 241.786,217.338 			"/>
		</g>
	</g>
	<g>
		<g>
			<path d="M110.917,250.647c-0.003,0.005-0.005,0.008-0.009,0.013v-0.025c-2.826-5.241-8.255-8.9-12.277-11.039
				c-1.682,2.076-2.854,4.585-3.312,7.336c7.67,1.933,11.575,9.667,12.334,17.314c0.343,3.449,0.173,7.647,0.03,8.499
				c0.993,0.194,2.182,0.299,3.233,0.299c1.05,0,2.239-0.104,3.232-0.299c-0.116-0.693-0.251-3.615-0.111-6.54
				c0.035-10.062-3.114-15.545-3.114-15.545C110.923,250.655,110.919,250.652,110.917,250.647z"/>
			<path fill="#29ABE2" d="M123.202,239.596c-4.022,2.139-9.449,5.798-12.277,11.039v0.025c0,0,3.149,5.483,3.114,15.545
				c0.032-0.66,0.078-1.323,0.142-1.959c0.758-7.647,4.661-15.382,12.333-17.314C126.056,244.181,124.886,241.672,123.202,239.596z"
				/>
		</g>
		<g>
			<path fill="#29ABE2" d="M169.499,264.539c0.002-0.003-0.654-0.865-1.461-1.918l-7.027-9.196c-0.805-1.053-2.23-1.147-3.168-0.211
				l-3.859,3.861c-0.938,0.937-0.938,2.47,0,3.408l13.809,13.812c0.938,0.937,1.705,0.618,1.705-0.708v-6.634
				C169.497,265.628,169.499,264.542,169.499,264.539z"/>
			<path d="M182.108,248.038c0.805-1.051,0.695-2.681-0.242-3.617l-5.908-5.912c-0.938-0.937-2.473-0.937-3.41,0l-5.91,5.912
				c-0.938,0.937-1.045,2.566-0.24,3.617l6.393,8.366c0.807,1.052,2.121,1.052,2.926,0L182.108,248.038z"/>
			<path fill="#29ABE2" d="M179.007,264.537c0.002,0.005,0.004,1.091,0.004,2.416v6.631c0,1.327,0.768,1.644,1.703,0.706
				l13.809-13.807c0.938-0.938,0.938-2.472,0-3.408l-3.861-3.861c-0.938-0.937-2.361-0.842-3.168,0.211l-7.025,9.194
				C179.663,263.672,179.005,264.535,179.007,264.537z"/>
		</g>
		<g>
			<g>
				<polygon points="46.254,239.074 30.334,239.074 30.334,254.994 				"/>
				<polygon points="64.826,254.994 64.826,239.074 48.906,239.074 				"/>
				<polygon points="30.334,257.646 30.334,273.566 46.254,273.566 				"/>
				<polygon points="48.906,273.566 64.826,273.566 64.826,257.646 				"/>
			</g>
			<polygon fill="#29ABE2" points="44.579,270.395 44.579,261.457 44.589,260.797 44.374,260.511 36.502,250.209 39.601,247.111 
				47.581,257.552 55.558,247.111 58.658,250.209 50.595,260.706 50.583,261.468 50.583,270.394 47.581,273.396 			"/>
		</g>
		<g>
			<path d="M232.981,258.799v13.926h9.213v-13.926c-1.473,0.37-3.016,0.569-4.605,0.569S234.456,259.169,232.981,258.799z"/>
			<path fill="#29ABE2" d="M256.397,240.051c0-0.043-0.002-0.089-0.002-0.135h-9.098l-9.709,12.704l-9.711-12.704h-9.096
				c-0.002,0.046-0.002,0.092-0.004,0.135c-0.004,0.166-0.012,0.33-0.012,0.497c0,8.804,6.047,16.194,14.215,18.251
				c1.475,0.37,3.018,0.569,4.607,0.569s3.133-0.199,4.605-0.569c8.168-2.057,14.217-9.447,14.217-18.251
				C256.411,240.381,256.401,240.217,256.397,240.051z"/>
		</g>
	</g>
	<g>
		<path d="M94.297,46.667v-3.799l13.598-18.757H94.297v-4.119h19.717v3.759l-13.678,18.797h13.958v4.119H94.297z"/>
		<path d="M118.896,46.667V19.991h18.277v4.119h-13.598v6.879h13.318v4.119h-13.318v7.439h13.598v4.119H118.896z"/>
		<path d="M160.573,46.667L146.655,27.59v19.077h-4.679V19.991h4.799l13.638,18.477V19.991h4.68v26.675H160.573z"/>
		<path d="M170.776,46.667V19.991h9.918c8.358,0,13.958,5.519,13.958,13.317c0,7.879-5.6,13.358-13.918,13.358H170.776z
			 M189.853,33.309c0-5.119-3.199-9.198-9.118-9.198h-5.279v18.437h5.239C186.493,42.547,189.853,38.388,189.853,33.309z"/>
	</g>
	<g>
	</g>
	<g>
	</g>
	<g>
	</g>
	<g>
	</g>
	<g>
	</g>
	<g>
	</g>
</g>
</svg>
